<svg width="30" height="30" viewBox="0 0 30 30" fill="none" xmlns="http://www.w3.org/2000/svg">
<rect width="30" height="30" rx="10" fill="#E5E5E5"/>
<path d="M14.976 9.312V19H13.702V11.776L10.482 19H9.586L6.352 11.762V19H5.078V9.312H6.45L10.034 17.32L13.618 9.312H14.976ZM23.5626 13.974C23.9173 14.03 24.2393 14.1747 24.5286 14.408C24.8273 14.6413 25.0606 14.9307 25.2286 15.276C25.4059 15.6213 25.4946 15.99 25.4946 16.382C25.4946 16.8767 25.3686 17.3247 25.1166 17.726C24.8646 18.118 24.4959 18.4307 24.0106 18.664C23.5346 18.888 22.9699 19 22.3166 19H18.6766V9.242H22.1766C22.8393 9.242 23.4039 9.354 23.8706 9.578C24.3373 9.79267 24.6873 10.0867 24.9206 10.46C25.1539 10.8333 25.2706 11.2533 25.2706 11.72C25.2706 12.2987 25.1119 12.7793 24.7946 13.162C24.4866 13.5353 24.0759 13.806 23.5626 13.974ZM19.9506 13.456H22.0926C22.6899 13.456 23.1519 13.316 23.4786 13.036C23.8053 12.756 23.9686 12.3687 23.9686 11.874C23.9686 11.3793 23.8053 10.992 23.4786 10.712C23.1519 10.432 22.6806 10.292 22.0646 10.292H19.9506V13.456ZM22.2046 17.95C22.8393 17.95 23.3339 17.8007 23.6886 17.502C24.0433 17.2033 24.2206 16.788 24.2206 16.256C24.2206 15.7147 24.0339 15.29 23.6606 14.982C23.2873 14.6647 22.7879 14.506 22.1626 14.506H19.9506V17.95H22.2046Z" fill="black"/>
<path d="M14.976 9.312H15.976V8.312H14.976V9.312ZM14.976 19V20H15.976V19H14.976ZM13.702 19H12.702V20H13.702V19ZM13.702 11.776H14.702L12.7886 11.3689L13.702 11.776ZM10.482 19V20H11.1311L11.3954 19.4071L10.482 19ZM9.586 19L8.67299 19.4079L8.93753 20H9.586V19ZM6.352 11.762L7.26501 11.3541L5.352 11.762H6.352ZM6.352 19V20H7.352V19H6.352ZM5.078 19H4.078V20H5.078V19ZM5.078 9.312V8.312H4.078V9.312H5.078ZM6.45 9.312L7.36276 8.90349L7.09803 8.312H6.45V9.312ZM10.034 17.32L9.12124 17.7285L10.034 19.7679L10.9468 17.7285L10.034 17.32ZM13.618 9.312V8.312H12.97L12.7052 8.90349L13.618 9.312ZM13.976 9.312V19H15.976V9.312H13.976ZM14.976 18H13.702V20H14.976V18ZM14.702 19V11.776H12.702V19H14.702ZM12.7886 11.3689L9.56863 18.5929L11.3954 19.4071L14.6154 12.1831L12.7886 11.3689ZM10.482 18H9.586V20H10.482V18ZM10.499 18.5921L7.26501 11.3541L5.43899 12.1699L8.67299 19.4079L10.499 18.5921ZM5.352 11.762V19H7.352V11.762H5.352ZM6.352 18H5.078V20H6.352V18ZM6.078 19V9.312H4.078V19H6.078ZM5.078 10.312H6.45V8.312H5.078V10.312ZM5.53724 9.72051L9.12124 17.7285L10.9468 16.9115L7.36276 8.90349L5.53724 9.72051ZM10.9468 17.7285L14.5308 9.72051L12.7052 8.90349L9.12124 16.9115L10.9468 17.7285ZM13.618 10.312H14.976V8.312H13.618V10.312ZM23.5626 13.974L23.2516 13.0236L23.4066 14.9618L23.5626 13.974ZM24.5286 14.408L23.9008 15.1864L23.9069 15.1913L23.913 15.196L24.5286 14.408ZM25.2286 15.276L24.3294 15.7135L24.3341 15.7232L24.339 15.7328L25.2286 15.276ZM25.1166 17.726L25.9578 18.2668L25.9635 18.2578L25.1166 17.726ZM24.0106 18.664L24.4364 19.5688L24.4439 19.5653L24.0106 18.664ZM18.6766 19H17.6766V20H18.6766V19ZM18.6766 9.242V8.242H17.6766V9.242H18.6766ZM23.8706 9.578L23.4379 10.4795L23.4452 10.4831L23.4527 10.4865L23.8706 9.578ZM24.9206 10.46L24.0726 10.99V10.99L24.9206 10.46ZM24.7946 13.162L24.0248 12.5237L24.0232 12.5256L24.7946 13.162ZM19.9506 13.456H18.9506V14.456H19.9506V13.456ZM23.4786 10.712L22.8278 11.4713V11.4713L23.4786 10.712ZM19.9506 10.292V9.292H18.9506V10.292H19.9506ZM23.6886 17.502L24.3327 18.2669V18.2669L23.6886 17.502ZM23.6606 14.982L23.0129 15.7439L23.0185 15.7487L23.0242 15.7534L23.6606 14.982ZM19.9506 14.506V13.506H18.9506V14.506H19.9506ZM19.9506 17.95H18.9506V18.95H19.9506V17.95ZM23.4066 14.9618C23.5822 14.9895 23.7427 15.0589 23.9008 15.1864L25.1563 13.6296C24.7358 13.2904 24.2523 13.0705 23.7186 12.9862L23.4066 14.9618ZM23.913 15.196C24.09 15.3343 24.2271 15.5032 24.3294 15.7135L26.1278 14.8385C25.8941 14.3582 25.5645 13.9483 25.1442 13.62L23.913 15.196ZM24.339 15.7328C24.443 15.9354 24.4946 16.1473 24.4946 16.382H26.4946C26.4946 15.8327 26.3688 15.3073 26.1182 14.8192L24.339 15.7328ZM24.4946 16.382C24.4946 16.6972 24.4172 16.9594 24.2697 17.1942L25.9635 18.2578C26.32 17.6899 26.4946 17.0561 26.4946 16.382H24.4946ZM24.2754 17.1852C24.1382 17.3987 23.9224 17.5969 23.5773 17.7627L24.4439 19.5653C25.0695 19.2645 25.591 18.8373 25.9578 18.2668L24.2754 17.1852ZM23.5848 17.7592C23.2702 17.9072 22.8574 18 22.3166 18V20C23.0824 20 23.799 19.8688 24.4364 19.5688L23.5848 17.7592ZM22.3166 18H18.6766V20H22.3166V18ZM19.6766 19V9.242H17.6766V19H19.6766ZM18.6766 10.242H22.1766V8.242H18.6766V10.242ZM22.1766 10.242C22.73 10.242 23.1386 10.3359 23.4379 10.4795L24.3033 8.67648C23.6693 8.37213 22.9485 8.242 22.1766 8.242V10.242ZM23.4527 10.4865C23.7724 10.6335 23.959 10.8082 24.0726 10.99L25.7686 9.93C25.4156 9.36515 24.9022 8.9518 24.2885 8.66951L23.4527 10.4865ZM24.0726 10.99C24.2005 11.1947 24.2706 11.429 24.2706 11.72H26.2706C26.2706 11.0777 26.1073 10.4719 25.7686 9.93L24.0726 10.99ZM24.2706 11.72C24.2706 12.1058 24.1696 12.3491 24.0248 12.5237L25.5644 13.8003C26.0543 13.2095 26.2706 12.4916 26.2706 11.72H24.2706ZM24.0232 12.5256C23.8495 12.7362 23.6063 12.9075 23.2516 13.0236L23.8736 14.9244C24.5455 14.7045 25.1237 14.3345 25.566 13.7984L24.0232 12.5256ZM19.9506 14.456H22.0926V12.456H19.9506V14.456ZM22.0926 14.456C22.8363 14.456 23.5619 14.2816 24.1294 13.7953L22.8278 12.2767C22.7419 12.3504 22.5435 12.456 22.0926 12.456V14.456ZM24.1294 13.7953C24.7121 13.2958 24.9686 12.612 24.9686 11.874H22.9686C22.9686 12.1254 22.8984 12.2162 22.8278 12.2767L24.1294 13.7953ZM24.9686 11.874C24.9686 11.136 24.7121 10.4522 24.1294 9.95274L22.8278 11.4713C22.8984 11.5318 22.9686 11.6226 22.9686 11.874H24.9686ZM24.1294 9.95274C23.557 9.46213 22.8179 9.292 22.0646 9.292V11.292C22.5433 11.292 22.7468 11.4019 22.8278 11.4713L24.1294 9.95274ZM22.0646 9.292H19.9506V11.292H22.0646V9.292ZM18.9506 10.292V13.456H20.9506V10.292H18.9506ZM22.2046 18.95C22.9882 18.95 23.741 18.7652 24.3327 18.2669L23.0445 16.7371C22.9269 16.8361 22.6903 16.95 22.2046 16.95V18.95ZM24.3327 18.2669C24.9477 17.749 25.2206 17.0344 25.2206 16.256H23.2206C23.2206 16.5416 23.1388 16.6576 23.0445 16.7371L24.3327 18.2669ZM25.2206 16.256C25.2206 15.4561 24.9297 14.7326 24.297 14.2106L23.0242 15.7534C23.1382 15.8474 23.2206 15.9732 23.2206 16.256H25.2206ZM24.3082 14.2201C23.7088 13.7105 22.9581 13.506 22.1626 13.506V15.506C22.6178 15.506 22.8657 15.6188 23.0129 15.7439L24.3082 14.2201ZM22.1626 13.506H19.9506V15.506H22.1626V13.506ZM18.9506 14.506V17.95H20.9506V14.506H18.9506ZM19.9506 18.95H22.2046V16.95H19.9506V18.95Z" fill="#222222"/>
<path d="M14.976 9.312H15.976V8.312H14.976V9.312ZM14.976 19V20H15.976V19H14.976ZM13.702 19H12.702V20H13.702V19ZM13.702 11.776H14.702L12.7886 11.3689L13.702 11.776ZM10.482 19V20H11.1311L11.3954 19.4071L10.482 19ZM9.586 19L8.67299 19.4079L8.93753 20H9.586V19ZM6.352 11.762L7.26501 11.3541L5.352 11.762H6.352ZM6.352 19V20H7.352V19H6.352ZM5.078 19H4.078V20H5.078V19ZM5.078 9.312V8.312H4.078V9.312H5.078ZM6.45 9.312L7.36276 8.90349L7.09803 8.312H6.45V9.312ZM10.034 17.32L9.12124 17.7285L10.034 19.7679L10.9468 17.7285L10.034 17.32ZM13.618 9.312V8.312H12.97L12.7052 8.90349L13.618 9.312ZM13.976 9.312V19H15.976V9.312H13.976ZM14.976 18H13.702V20H14.976V18ZM14.702 19V11.776H12.702V19H14.702ZM12.7886 11.3689L9.56863 18.5929L11.3954 19.4071L14.6154 12.1831L12.7886 11.3689ZM10.482 18H9.586V20H10.482V18ZM10.499 18.5921L7.26501 11.3541L5.43899 12.1699L8.67299 19.4079L10.499 18.5921ZM5.352 11.762V19H7.352V11.762H5.352ZM6.352 18H5.078V20H6.352V18ZM6.078 19V9.312H4.078V19H6.078ZM5.078 10.312H6.45V8.312H5.078V10.312ZM5.53724 9.72051L9.12124 17.7285L10.9468 16.9115L7.36276 8.90349L5.53724 9.72051ZM10.9468 17.7285L14.5308 9.72051L12.7052 8.90349L9.12124 16.9115L10.9468 17.7285ZM13.618 10.312H14.976V8.312H13.618V10.312ZM23.5626 13.974L23.2516 13.0236L23.4066 14.9618L23.5626 13.974ZM24.5286 14.408L23.9008 15.1864L23.9069 15.1913L23.913 15.196L24.5286 14.408ZM25.2286 15.276L24.3294 15.7135L24.3341 15.7232L24.339 15.7328L25.2286 15.276ZM25.1166 17.726L25.9578 18.2668L25.9635 18.2578L25.1166 17.726ZM24.0106 18.664L24.4364 19.5688L24.4439 19.5653L24.0106 18.664ZM18.6766 19H17.6766V20H18.6766V19ZM18.6766 9.242V8.242H17.6766V9.242H18.6766ZM23.8706 9.578L23.4379 10.4795L23.4452 10.4831L23.4527 10.4865L23.8706 9.578ZM24.9206 10.46L24.0726 10.99V10.99L24.9206 10.46ZM24.7946 13.162L24.0248 12.5237L24.0232 12.5256L24.7946 13.162ZM19.9506 13.456H18.9506V14.456H19.9506V13.456ZM23.4786 10.712L22.8278 11.4713V11.4713L23.4786 10.712ZM19.9506 10.292V9.292H18.9506V10.292H19.9506ZM23.6886 17.502L24.3327 18.2669V18.2669L23.6886 17.502ZM23.6606 14.982L23.0129 15.7439L23.0185 15.7487L23.0242 15.7534L23.6606 14.982ZM19.9506 14.506V13.506H18.9506V14.506H19.9506ZM19.9506 17.95H18.9506V18.95H19.9506V17.95ZM23.4066 14.9618C23.5822 14.9895 23.7427 15.0589 23.9008 15.1864L25.1563 13.6296C24.7358 13.2904 24.2523 13.0705 23.7186 12.9862L23.4066 14.9618ZM23.913 15.196C24.09 15.3343 24.2271 15.5032 24.3294 15.7135L26.1278 14.8385C25.8941 14.3582 25.5645 13.9483 25.1442 13.62L23.913 15.196ZM24.339 15.7328C24.443 15.9354 24.4946 16.1473 24.4946 16.382H26.4946C26.4946 15.8327 26.3688 15.3073 26.1182 14.8192L24.339 15.7328ZM24.4946 16.382C24.4946 16.6972 24.4172 16.9594 24.2697 17.1942L25.9635 18.2578C26.32 17.6899 26.4946 17.0561 26.4946 16.382H24.4946ZM24.2754 17.1852C24.1382 17.3987 23.9224 17.5969 23.5773 17.7627L24.4439 19.5653C25.0695 19.2645 25.591 18.8373 25.9578 18.2668L24.2754 17.1852ZM23.5848 17.7592C23.2702 17.9072 22.8574 18 22.3166 18V20C23.0824 20 23.799 19.8688 24.4364 19.5688L23.5848 17.7592ZM22.3166 18H18.6766V20H22.3166V18ZM19.6766 19V9.242H17.6766V19H19.6766ZM18.6766 10.242H22.1766V8.242H18.6766V10.242ZM22.1766 10.242C22.73 10.242 23.1386 10.3359 23.4379 10.4795L24.3033 8.67648C23.6693 8.37213 22.9485 8.242 22.1766 8.242V10.242ZM23.4527 10.4865C23.7724 10.6335 23.959 10.8082 24.0726 10.99L25.7686 9.93C25.4156 9.36515 24.9022 8.9518 24.2885 8.66951L23.4527 10.4865ZM24.0726 10.99C24.2005 11.1947 24.2706 11.429 24.2706 11.72H26.2706C26.2706 11.0777 26.1073 10.4719 25.7686 9.93L24.0726 10.99ZM24.2706 11.72C24.2706 12.1058 24.1696 12.3491 24.0248 12.5237L25.5644 13.8003C26.0543 13.2095 26.2706 12.4916 26.2706 11.72H24.2706ZM24.0232 12.5256C23.8495 12.7362 23.6063 12.9075 23.2516 13.0236L23.8736 14.9244C24.5455 14.7045 25.1237 14.3345 25.566 13.7984L24.0232 12.5256ZM19.9506 14.456H22.0926V12.456H19.9506V14.456ZM22.0926 14.456C22.8363 14.456 23.5619 14.2816 24.1294 13.7953L22.8278 12.2767C22.7419 12.3504 22.5435 12.456 22.0926 12.456V14.456ZM24.1294 13.7953C24.7121 13.2958 24.9686 12.612 24.9686 11.874H22.9686C22.9686 12.1254 22.8984 12.2162 22.8278 12.2767L24.1294 13.7953ZM24.9686 11.874C24.9686 11.136 24.7121 10.4522 24.1294 9.95274L22.8278 11.4713C22.8984 11.5318 22.9686 11.6226 22.9686 11.874H24.9686ZM24.1294 9.95274C23.557 9.46213 22.8179 9.292 22.0646 9.292V11.292C22.5433 11.292 22.7468 11.4019 22.8278 11.4713L24.1294 9.95274ZM22.0646 9.292H19.9506V11.292H22.0646V9.292ZM18.9506 10.292V13.456H20.9506V10.292H18.9506ZM22.2046 18.95C22.9882 18.95 23.741 18.7652 24.3327 18.2669L23.0445 16.7371C22.9269 16.8361 22.6903 16.95 22.2046 16.95V18.95ZM24.3327 18.2669C24.9477 17.749 25.2206 17.0344 25.2206 16.256H23.2206C23.2206 16.5416 23.1388 16.6576 23.0445 16.7371L24.3327 18.2669ZM25.2206 16.256C25.2206 15.4561 24.9297 14.7326 24.297 14.2106L23.0242 15.7534C23.1382 15.8474 23.2206 15.9732 23.2206 16.256H25.2206ZM24.3082 14.2201C23.7088 13.7105 22.9581 13.506 22.1626 13.506V15.506C22.6178 15.506 22.8657 15.6188 23.0129 15.7439L24.3082 14.2201ZM22.1626 13.506H19.9506V15.506H22.1626V13.506ZM18.9506 14.506V17.95H20.9506V14.506H18.9506ZM19.9506 18.95H22.2046V16.95H19.9506V18.95Z" fill="#555555" fill-opacity="0.2"/>
</svg>
